<svg height="512pt" viewBox="0 -78 512 512" width="512pt" xmlns="http://www.w3.org/2000/svg"><path d="m478.496094 298c0 27.890625-22.609375 50.5-50.5 50.5s-50.5-22.609375-50.5-50.5 22.609375-50.5 50.5-50.5 50.5 22.609375 50.5 50.5zm0 0" fill="#515759"/><path d="m170.496094 297.5c0 27.890625-22.609375 50.5-50.5 50.5s-50.5-22.609375-50.5-50.5 22.609375-50.5 50.5-50.5 50.5 22.609375 50.5 50.5zm0 0" fill="#515759"/><path d="m347.996094 93.5h20.957031c8.179687 0 15.53125 4.980469 18.570313 12.570312l2 5c5.253906 13.140626-4.417969 27.429688-18.570313 27.429688h-7.957031zm0 0" fill="#d0e8ef"/><path d="m229.496094 231.5v20c0 5.523438 4.476562 10 10 10h114.5v-30zm0 0" fill="#a0513f"/><path d="m318.003906 37.5h-17v25l27 11.75v-26.75c0-5.523438-4.476562-10-10-10zm0 0" fill="#adadad"/><path d="m170.496094 297.5c0 27.890625-22.609375 50.5-50.5 50.5-5.222656 0-10.261719-.789062-14.992188-2.269531 20.5625-6.390625 35.492188-25.570313 35.492188-48.230469s-14.929688-41.839844-35.492188-48.230469c4.730469-1.480469 9.769532-2.269531 14.992188-2.269531 27.890625 0 50.5 22.609375 50.5 50.5zm0 0" fill="#373a3a"/><path d="m427.996094 319c-11.324219 0-20.5-9.179688-20.5-20.5s9.175781-20.5 20.5-20.5c11.320312 0 20.5 9.179688 20.5 20.5s-9.179688 20.5-20.5 20.5zm0 0" fill="#e8e8e8"/><path d="m478.496094 298c0 27.890625-22.609375 50.5-50.5 50.5-5.222656 0-10.261719-.789062-14.992188-2.269531 20.5625-6.390625 35.492188-25.570313 35.492188-48.230469s-14.929688-41.839844-35.492188-48.230469c4.730469-1.480469 9.769532-2.269531 14.992188-2.269531 27.890625 0 50.5 22.609375 50.5 50.5zm0 0" fill="#373a3a"/><path d="m17.496094 251.5h25v45h-25c-5.523438 0-10-4.476562-10-10v-25c0-5.523438 4.476562-10 10-10zm0 0" fill="#ccc"/><path d="m214.496094 93.5h-93v40h108v-25c0-8.285156-6.71875-15-15-15zm0 0" fill="#a0513f"/><path d="m229.496094 108.5v25h-30v-25c0-8.28125-6.722656-15-15-15h30c8.277344 0 15 6.71875 15 15zm0 0" fill="#7a3730"/><path d="m351.496094 296.5h143c5.523437 0 10-4.476562 10-10v-6.5c0-42.25-34.25-76.5-76.5-76.5-11.140625 0-21.722656 2.378906-31.265625 6.660156zm0 0" fill="#c44545"/><path d="m504.503906 280v6.5c0 5.519531-4.480468 10-10 10h-30c5.519532 0 10-4.480469 10-10v-6.5c0-37.121094-26.429687-68.058594-61.5-75.03125 4.851563-.957031 9.859375-1.46875 15-1.46875 42.25 0 76.5 34.25 76.5 76.5zm0 0" fill="#a83838"/><path d="m66.390625 296.5h-33.894531v-93c0-44.183594 35.816406-80 80-80h117v128c0 5.523438 4.476562 10 10 10h97.738281c6.492187 0 11.261719-6.089844 9.710937-12.390625l-45.949218-186.609375h25.230468c8.292969 0 15.722657 5.117188 18.683594 12.859375l57.929688 151.601563c4.796875 12.558593 3.167968 26.671874-4.367188 37.804687l-21.476562 31.734375h-203.429688c-2.382812 0-4.4375-1.683594-4.902344-4.023438l-2.800781-14.070312c-1.394531-7.019531-7.554687-12.074219-14.710937-12.074219h-62.347656c-7.15625 0-13.316407 5.054688-14.710938 12.074219l-2.796875 14.070312c-.46875 2.339844-2.519531 4.023438-4.90625 4.023438zm0 0" fill="#f66"/><path d="m119.996094 319c-11.324219 0-20.5-9.179688-20.5-20.5s9.175781-20.5 20.5-20.5c11.320312 0 20.5 9.179688 20.5 20.5s-9.179688 20.5-20.5 20.5zm0 0" fill="#e8e8e8"/><path d="m26.496094 27.5h101v96h-81c-11.046875 0-20-8.953125-20-20zm0 0" fill="#ffd47d"/><path d="m127.496094 7.5h-101c-8.285156 0-15 6.714844-15 15s6.714844 15 15 15h101c8.28125 0 15-6.714844 15-15s-6.71875-15-15-15zm0 0" fill="#edaf54"/><path d="m97.496094 37.5h30v86h-30zm0 0" fill="#edaf54"/><path d="m142.496094 22.5c0 8.28125-6.722656 15-15 15h-30c6.527344 0 12.089844-4.179688 14.140625-10 .558593-1.570312.859375-3.25.859375-5 0-4.140625-1.679688-7.890625-4.402344-10.601562-2.707031-2.71875-6.457031-4.398438-10.597656-4.398438h30c4.140625 0 7.890625 1.679688 10.597656 4.398438 2.722656 2.710937 4.402344 6.460937 4.402344 10.601562zm0 0" fill="#db8733"/><path d="m428 196c-9.378906 0-18.507812 1.523438-27.230469 4.519531l-21.34375-55.855469c5.757813-1.863281 10.820313-5.59375 14.304688-10.746093 5.125-7.566407 6.15625-17.148438 2.761719-25.632813l-2-5c-4.203126-10.5-14.222657-17.285156-25.53125-17.285156h-11.953126l-5.085937-13.316406c-2.894531-7.574219-9.015625-13.347656-16.414063-16.03125v-9.152344c0-9.648438-7.851562-17.5-17.5-17.5h-67.007812c-4.144531 0-7.5 3.355469-7.5 7.5s3.355469 7.5 7.5 7.5h17.75v7.5c0 1.378906-1.121094 2.5-2.5 2.5h-15.5c-4.144531 0-7.5 3.355469-7.5 7.5s3.355469 7.5 7.5 7.5h15.5c9.648438 0 17.5-7.851562 17.5-17.5v-7.5h9.757812v17.429688c-.003906.621093.058594 1.246093.210938 1.863281l39.324219 159.707031h-68.542969c-4.144531 0-7.5 3.355469-7.5 7.5s3.355469 7.5 7.5 7.5h72.234375l2.933594 11.902344c.253906 1.027344-.179688 1.78125-.460938 2.140625-.28125.355469-.910156.957031-1.96875.957031h-97.738281c-1.378906 0-2.5-1.121094-2.5-2.5v-143c0-12.40625-10.09375-22.5-22.5-22.5h-87c-4.144531 0-7.5 3.355469-7.5 7.5v22.5h-73.5c-6.894531 0-12.5-5.605469-12.5-12.5v-58.5h86v13.5c0 4.144531 3.355469 7.5 7.5 7.5s7.5-3.355469 7.5-7.5v-14.789062c8.730469-3.097657 15-11.433594 15-21.210938 0-12.40625-10.09375-22.5-22.5-22.5h-101c-12.40625 0-22.5 10.09375-22.5 22.5 0 9.777344 6.269531 18.113281 15 21.210938v59.789062c0 15.164062 12.335938 27.5 27.5 27.5h17.058594c-23.25 15.746094-38.558594 42.367188-38.558594 72.5v40.5h-7.5c-9.648438 0-17.5 7.851562-17.5 17.5v25c0 9.648438 7.851562 17.5 17.5 17.5h44.808594c3.011718 29.171875 27.734375 52 57.691406 52s54.679688-22.828125 57.691406-52h192.617188c3.011718 29.171875 27.734375 52 57.691406 52s54.679688-22.828125 57.691406-52h8.808594c9.648438 0 17.5-7.851562 17.5-17.5v-6.5c0-46.316406-37.683594-84-84-84zm-401.5-181h101c4.136719 0 7.5 3.363281 7.5 7.5s-3.363281 7.5-7.5 7.5h-101c-4.136719 0-7.5-3.363281-7.5-7.5s3.363281-7.5 7.5-7.5zm342.460938 86c5.140624 0 9.695312 3.085938 11.605468 7.855469l2 5c1.5625 3.914062 1.105469 8.160156-1.257812 11.652343-1.761719 2.605469-4.316406 4.378907-7.25 5.113282l-11.320313-29.621094zm-48.453126-53.5v7.5h-12v-10h9.5c1.378907 0 2.5 1.121094 2.5 2.5zm-185.507812 53.5h79.5c4.136719 0 7.5 3.363281 7.5 7.5v7.5h-87zm-120 185.5v-25c0-1.378906 1.121094-2.5 2.5-2.5h7.5v30h-7.5c-1.378906 0-2.5-1.121094-2.5-2.5zm105 54.5c-23.675781 0-42.945312-19.238281-42.996094-42.902344.777344-1.25 1.351563-2.648437 1.652344-4.160156l2.796875-14.066406c.695313-3.5 3.789063-6.035156 7.355469-6.035156h17.957031c-8.78125 4.726562-14.765625 14.007812-14.765625 24.664062 0 15.4375 12.5625 28 28 28s28-12.5625 28-28c0-10.65625-5.984375-19.9375-14.765625-24.667969h17.921875c3.566406 0 6.660156 2.539063 7.359375 6.039063l2.796875 14.066406c.304688 1.53125.886719 2.945312 1.683594 4.203125-.078125 23.644531-19.335938 42.859375-42.996094 42.859375zm13-42.5c0 7.167969-5.832031 13-13 13s-13-5.832031-13-13 5.832031-13 13-13 13 5.832031 13 13zm42.625-9.5-2.398438-12.054688c-2.085937-10.496093-11.367187-18.113281-22.066406-18.113281h-62.347656c-10.703125 0-19.984375 7.617188-22.070312 18.113281l-2.398438 12.054688h-24.34375v-85.5c0-39.976562 32.523438-72.5 72.5-72.5h109.5v120.5c0 9.648438 7.851562 17.5 17.5 17.5h97.738281c5.414063 0 10.4375-2.445312 13.773438-6.703125 3.339843-4.265625 4.515625-9.722656 3.21875-14.980469l-43.660157-177.316406h15.660157c5.148437 0 9.839843 3.230469 11.675781 8.039062l57.929688 151.597657c3.921874 10.265625 2.589843 21.828125-3.570313 30.925781l-19.246094 28.4375zm252.375 52c-21.671875 0-39.644531-16.121094-42.570312-37h15.117187c2.5625 12.8125 13.894531 22.5 27.453125 22.5s24.890625-9.6875 27.453125-22.5h15.117187c-2.925781 20.878906-20.898437 37-42.570312 37zm-11.761719-37h23.523438c-2.078125 4.421875-6.5625 7.5-11.761719 7.5s-9.683594-3.078125-11.761719-7.5zm80.761719-17.5c0 1.378906-1.121094 2.5-2.5 2.5h-103.367188l13.554688-20.027344c8.898438-13.152344 10.828125-29.855468 5.160156-44.691406l-3.71875-9.738281c7.011719-2.347657 14.339844-3.542969 21.871094-3.542969 38.046875 0 69 30.953125 69 69zm0 0"/><path d="m107.136719 223.316406h-24c-4.144531 0-7.5 3.359375-7.5 7.5 0 4.144532 3.355469 7.5 7.5 7.5h24c4.140625 0 7.5-3.355468 7.5-7.5 0-4.140625-3.359375-7.5-7.5-7.5zm0 0"/></svg>